<svg width="33" height="32" viewBox="0 0 33 32" fill="none" xmlns="http://www.w3.org/2000/svg">
<g clip-path="url(#clip0)">
<path fill-rule="evenodd" clip-rule="evenodd" d="M16.2321 0C7.37136 0 0.19458 7.16 0.19458 16C0.19458 23.08 4.78531 29.06 11.1602 31.18C11.9621 31.32 12.2628 30.84 12.2628 30.42C12.2628 30.04 12.2428 28.78 12.2428 27.44C8.21333 28.18 7.17089 26.46 6.85014 25.56C6.66972 25.1 5.88789 23.68 5.2063 23.3C4.64499 23 3.84311 22.26 5.18625 22.24C6.4492 22.22 7.35131 23.4 7.65202 23.88C9.09539 26.3 11.4008 25.62 12.3229 25.2C12.4633 24.16 12.8843 23.46 13.3453 23.06C9.77699 22.66 6.04827 21.28 6.04827 15.16C6.04827 13.42 6.66972 11.98 7.69211 10.86C7.53174 10.46 6.97042 8.82 7.85249 6.62C7.85249 6.62 9.19563 6.2 12.2628 8.26C13.5458 7.9 14.909 7.72 16.2722 7.72C17.6354 7.72 18.9985 7.9 20.2815 8.26C23.3487 6.18 24.6919 6.62 24.6919 6.62C25.5739 8.82 25.0126 10.46 24.8522 10.86C25.8746 11.98 26.4961 13.4 26.4961 15.16C26.4961 21.3 22.7473 22.66 19.179 23.06C19.7603 23.56 20.2615 24.52 20.2615 26.02C20.2615 28.16 20.2415 29.88 20.2415 30.42C20.2415 30.84 20.5422 31.34 21.344 31.18C24.5277 30.1076 27.2942 28.0662 29.2541 25.3432C31.214 22.6201 32.2686 19.3524 32.2696 16C32.2696 7.16 25.0928 0 16.2321 0Z" fill="white"/>
</g>
<defs>
<clipPath id="clip0">
<rect width="32.075" height="32" fill="white" transform="translate(0.19458)"/>
</clipPath>
</defs>
</svg>
