<svg width="70" height="70" viewBox="0 0 70 70" fill="none" xmlns="http://www.w3.org/2000/svg">
<path d="M35 0C28.0777 0 21.3108 2.05271 15.5551 5.89856C9.79933 9.74441 5.3133 15.2107 2.66423 21.6061C0.0151649 28.0015 -0.677952 35.0388 0.672531 41.8281C2.02301 48.6175 5.35644 54.8539 10.2513 59.7487C15.1461 64.6436 21.3825 67.977 28.1719 69.3275C34.9612 70.6779 41.9985 69.9848 48.3939 67.3358C54.7893 64.6867 60.2556 60.2007 64.1014 54.4449C67.9473 48.6892 70 41.9223 70 35C70 30.4037 69.0947 25.8525 67.3358 21.6061C65.5769 17.3597 62.9988 13.5013 59.7487 10.2513C56.4987 7.00121 52.6403 4.42313 48.3939 2.66422C44.1475 0.905302 39.5963 0 35 0ZM28 45.5C28 46.4282 27.6313 47.3185 26.9749 47.9749C26.3185 48.6312 25.4283 49 24.5 49C23.5718 49 22.6815 48.6312 22.0251 47.9749C21.3688 47.3185 21 46.4282 21 45.5V24.5C21 23.5717 21.3688 22.6815 22.0251 22.0251C22.6815 21.3687 23.5718 21 24.5 21C25.4283 21 26.3185 21.3687 26.9749 22.0251C27.6313 22.6815 28 23.5717 28 24.5V45.5ZM49 45.5C49 46.4282 48.6313 47.3185 47.9749 47.9749C47.3185 48.6312 46.4283 49 45.5 49C44.5718 49 43.6815 48.6312 43.0251 47.9749C42.3688 47.3185 42 46.4282 42 45.5V24.5C42 23.5717 42.3688 22.6815 43.0251 22.0251C43.6815 21.3687 44.5718 21 45.5 21C46.4283 21 47.3185 21.3687 47.9749 22.0251C48.6313 22.6815 49 23.5717 49 24.5V45.5Z" fill="#EA304C"/>
</svg>
