<svg width="32" height="32" viewBox="0 0 32 32" fill="none" xmlns="http://www.w3.org/2000/svg">
<path d="M5.33341 5.33334H26.6667C27.374 5.33334 28.0523 5.61429 28.5524 6.11439C29.0525 6.61449 29.3334 7.29277 29.3334 8.00001V24C29.3334 24.7073 29.0525 25.3855 28.5524 25.8856C28.0523 26.3857 27.374 26.6667 26.6667 26.6667H5.33341C4.62617 26.6667 3.94789 26.3857 3.4478 25.8856C2.9477 25.3855 2.66675 24.7073 2.66675 24V8.00001C2.66675 7.29277 2.9477 6.61449 3.4478 6.11439C3.94789 5.61429 4.62617 5.33334 5.33341 5.33334ZM5.33341 8.00001V24H14.6667V8.00001H5.33341ZM26.6667 24V8.00001H25.0134C25.3334 8.72001 25.2668 9.42668 25.2668 9.50668C25.1734 10.4 24.5467 11.3333 24.3201 11.6667L21.2134 15.0667L25.6401 15.04L25.6534 16.6667L18.7201 16.6267L18.6667 15.2933C18.6667 15.2933 22.7334 10.9867 22.9334 10.6C23.1201 10.2267 23.8801 8.00001 22.0001 8.00001C20.3601 8.06668 20.5467 9.73334 20.5467 9.73334L18.4934 9.74668C18.4934 9.74668 18.5067 8.86668 19.0001 8.00001H17.3334V24H20.7734L20.7601 22.8533L22.0534 22.84C22.0534 22.84 23.2667 22.6267 23.2801 21.44C23.3334 20.1067 22.2001 20.1067 22.0001 20.1067C21.8267 20.1067 20.5734 20.1733 20.5734 21.2667H18.5467C18.5467 21.2667 18.6001 18.52 22.0001 18.52C25.4667 18.52 25.2801 21.2133 25.2801 21.2133C25.2801 21.2133 25.3334 22.88 23.8001 23.5067L24.4934 24H26.6667ZM11.8934 21.3333H9.89341V13.6L7.49341 14.3467V12.7067L11.6801 11.2133H11.8934V21.3333Z" fill="black"/>
</svg>
