<svg width="32" height="32" viewBox="0 0 32 32" fill="none" xmlns="http://www.w3.org/2000/svg">
<path d="M5.33329 5.33334H26.6666C27.3739 5.33334 28.0521 5.61429 28.5522 6.11439C29.0523 6.61449 29.3333 7.29277 29.3333 8.00001V24C29.3333 24.7073 29.0523 25.3855 28.5522 25.8856C28.0521 26.3857 27.3739 26.6667 26.6666 26.6667H5.33329C4.62605 26.6667 3.94777 26.3857 3.44767 25.8856C2.94758 25.3855 2.66663 24.7073 2.66663 24V8.00001C2.66663 7.29277 2.94758 6.61449 3.44767 6.11439C3.94777 5.61429 4.62605 5.33334 5.33329 5.33334ZM5.33329 8.00001V24H14.6666V8.00001H5.33329ZM26.6666 24V8.00001H25.0133C25.3333 8.72001 25.2666 9.42668 25.2666 9.50668C25.1733 10.4 24.5466 11.3333 24.32 11.6667L21.2133 15.0667L25.64 15.04L25.6533 16.6667L18.72 16.6267L18.6666 15.2933C18.6666 15.2933 22.7333 10.9867 22.9333 10.6C23.12 10.2267 23.88 8.00001 22 8.00001C20.36 8.06668 20.5466 9.73334 20.5466 9.73334L18.4933 9.74668C18.4933 9.74668 18.5066 8.86668 19 8.00001H17.3333V24H20.7733L20.76 22.8533L22.0533 22.84C22.0533 22.84 23.2666 22.6267 23.28 21.44C23.3333 20.1067 22.2 20.1067 22 20.1067C21.8266 20.1067 20.5733 20.1733 20.5733 21.2667H18.5466C18.5466 21.2667 18.6 18.52 22 18.52C25.4666 18.52 25.28 21.2133 25.28 21.2133C25.28 21.2133 25.3333 22.88 23.8 23.5067L24.4933 24H26.6666ZM11.8933 21.3333H9.89329V13.6L7.49329 14.3467V12.7067L11.68 11.2133H11.8933V21.3333Z" fill="white"/>
</svg>
