<svg width="32" height="32" viewBox="0 0 32 32" fill="none" xmlns="http://www.w3.org/2000/svg">
<path d="M17.0001 10V15.4226L21.6964 18.1339C21.9261 18.2665 22.0937 18.4849 22.1623 18.7411C22.231 18.9973 22.195 19.2703 22.0624 19.5C21.9298 19.7297 21.7114 19.8973 21.4552 19.9659C21.199 20.0346 20.9261 19.9986 20.6964 19.866L15.5001 16.866C15.4922 16.8614 15.4851 16.856 15.4772 16.8513C15.4602 16.8409 15.4434 16.8301 15.427 16.8188C15.4141 16.8098 15.4017 16.8001 15.3895 16.7906C15.3767 16.7809 15.3641 16.7708 15.3517 16.7604C15.338 16.7486 15.3246 16.7364 15.3115 16.7239C15.278 16.6923 15.2468 16.6583 15.2181 16.6223C15.1873 16.5835 15.1595 16.5425 15.1347 16.4996C15.1264 16.4853 15.1185 16.4708 15.1109 16.456C15.0813 16.3978 15.0573 16.337 15.0391 16.2744C15.0354 16.2611 15.032 16.2478 15.0289 16.2344C15.0245 16.2168 15.0207 16.1992 15.0174 16.1814C15.0145 16.1655 15.0121 16.1495 15.01 16.1334C15.008 16.118 15.0059 16.1026 15.0045 16.0871C15.0029 16.0672 15.0019 16.0472 15.0015 16.0271C15.0012 16.018 15.0001 16.0091 15.0001 16V10C15.0001 9.7348 15.1055 9.48045 15.293 9.29291C15.4806 9.10538 15.7349 9.00002 16.0001 9.00002C16.2653 9.00002 16.5197 9.10538 16.7072 9.29291C16.8948 9.48045 17.0001 9.7348 17.0001 10ZM24.4854 7.51477C22.2332 5.26772 19.1816 4.00577 16.0001 4.00577C12.8187 4.00577 9.76709 5.26772 7.51487 7.51477L4.97925 10.0503V7.46452C4.97925 7.1993 4.87389 6.94495 4.68635 6.75741C4.49882 6.56988 4.24446 6.46452 3.97925 6.46452C3.71403 6.46452 3.45968 6.56988 3.27214 6.75741C3.0846 6.94495 2.97925 7.1993 2.97925 7.46452V12.4645C2.97925 12.4974 2.98112 12.5304 2.98425 12.5633C2.98575 12.5781 2.98862 12.5926 2.99062 12.6074C2.99312 12.6249 2.99525 12.6424 2.99862 12.6599C3.002 12.6768 3.00662 12.6931 3.01087 12.7098C3.01462 12.7248 3.018 12.7398 3.0225 12.7548C3.0275 12.771 3.0335 12.7868 3.03925 12.8028C3.0445 12.8175 3.0495 12.8325 3.0555 12.847C3.06175 12.862 3.06887 12.8763 3.07575 12.8908C3.08287 12.9058 3.0895 12.921 3.09737 12.9358C3.10487 12.9499 3.11362 12.9633 3.12162 12.9768C3.13025 12.9911 3.13825 13.0055 3.14762 13.0196C3.15787 13.0349 3.16925 13.0493 3.18012 13.064C3.18887 13.0753 3.19675 13.0871 3.20587 13.0983C3.24775 13.1493 3.29456 13.1961 3.34562 13.238C3.3565 13.2468 3.36775 13.2545 3.37887 13.2628C3.39387 13.274 3.40862 13.2858 3.42437 13.2963C3.43787 13.3053 3.45187 13.3131 3.46587 13.3214C3.47987 13.3299 3.49375 13.3388 3.50825 13.3464C3.5225 13.3541 3.53712 13.3605 3.55175 13.3674C3.56675 13.3745 3.5815 13.382 3.59687 13.3884C3.611 13.3943 3.62525 13.3989 3.63937 13.404C3.65612 13.41 3.67237 13.4164 3.68937 13.4215C3.7035 13.4258 3.71775 13.4288 3.73187 13.4324C3.74937 13.4368 3.7665 13.4416 3.78425 13.4451C3.8005 13.4484 3.81675 13.4501 3.83312 13.4526C3.849 13.455 3.86475 13.4579 3.881 13.4595C3.91 13.4624 3.939 13.4636 3.96812 13.4639C3.97187 13.4639 3.97562 13.4645 3.97937 13.4645H8.97937C9.24459 13.4645 9.49894 13.3592 9.68648 13.1716C9.87402 12.9841 9.97937 12.7297 9.97937 12.4645C9.97937 12.1993 9.87402 11.945 9.68648 11.7574C9.49894 11.5699 9.24459 11.4645 8.97937 11.4645H6.39337L8.92912 8.92877C10.3276 7.53024 12.1095 6.57784 14.0493 6.19198C15.9891 5.80613 17.9998 6.00416 19.827 6.76104C21.6543 7.51791 23.2161 8.79964 24.3149 10.4441C25.4137 12.0886 26.0002 14.022 26.0002 15.9998C26.0002 17.9776 25.4137 19.911 24.3149 21.5555C23.2161 23.2 21.6543 24.4818 19.827 25.2386C17.9998 25.9955 15.9891 26.1935 14.0493 25.8077C12.1095 25.4218 10.3276 24.4694 8.92912 23.0709C8.74157 22.8834 8.48719 22.778 8.22195 22.778C7.95672 22.778 7.70235 22.8834 7.51481 23.071C7.32727 23.2585 7.22192 23.5129 7.22193 23.7781C7.22194 24.0434 7.32732 24.2977 7.51487 24.4853C9.76741 26.7256 12.8164 27.9813 15.9934 27.9769C19.1703 27.9726 22.2159 26.7087 24.4623 24.4622C26.7088 22.2158 27.9727 19.1702 27.977 15.9933C27.9814 12.8163 26.7257 9.76731 24.4854 7.51477Z" fill="black"/>
</svg>
