<svg width="33" height="32" viewBox="0 0 33 32" fill="none" xmlns="http://www.w3.org/2000/svg">
<g clip-path="url(#clip0)">
<path d="M21.028 0H11.182C2.197 0 0.0670166 2.125 0.0670166 11.089V20.912C0.0670166 29.876 2.197 32.001 11.182 32.001H21.028C30.013 32.001 32.143 29.876 32.143 20.912V11.089C32.143 2.125 29.992 0 21.028 0ZM25.9616 22.828H23.6331C22.7511 22.828 22.4794 22.13 20.8927 20.526C19.5145 19.193 18.9041 19.016 18.5643 19.016C18.0841 19.016 17.9478 19.151 17.9478 19.808V21.907C17.9478 22.47 17.7704 22.808 16.2769 22.808C13.8071 22.808 11.0667 21.318 9.14524 18.542C6.24747 14.474 5.45461 11.427 5.45461 10.797C5.45461 10.458 5.58993 10.141 6.24246 10.141H8.57591C9.16629 10.141 9.39082 10.412 9.62036 11.042C10.7741 14.365 12.6955 17.276 13.4884 17.276C13.7811 17.276 13.9164 17.141 13.9164 16.396V12.964C13.8272 11.381 12.9922 11.245 12.9922 10.683C12.9922 10.412 13.2168 10.141 13.5766 10.141H17.2462C17.7423 10.141 17.9248 10.412 17.9248 10.995V15.625C17.9248 16.125 18.1493 16.302 18.2846 16.302C18.5773 16.302 18.8279 16.125 19.3702 15.583C21.0461 13.708 22.2469 10.817 22.2469 10.817C22.4032 10.478 22.6749 10.161 23.2653 10.161H25.5987C26.2984 10.161 26.4547 10.52 26.2984 11.02C26.0057 12.374 23.15 16.395 23.15 16.395C22.9044 16.801 22.8102 16.978 23.15 17.431C23.4006 17.77 24.2155 18.473 24.7577 19.103C25.7551 20.233 26.5219 21.181 26.7264 21.837C26.9559 22.488 26.6171 22.827 25.9586 22.827L25.9616 22.828Z" fill="white"/>
</g>
<defs>
<clipPath id="clip0">
<rect width="32.075" height="32" fill="white" transform="translate(0.0679932)"/>
</clipPath>
</defs>
</svg>
